# xmcd
#
# Track frame offsets:
#	150
#	19387
#	37185
#	53450
#	70390
#	91492
#	106957
#	121570
#	140822
#	158695
#
# Disc length: 2378 seconds
#
# Revision: 1
# Processed by: cddbd v1.5PL3 Copyright (c) Steve Scherf et al.
# Submitted via: audiograbber 1.83.01
#
DISCID=8409480a
DTITLE=Various Artist - Music City Now
DYEAR=1999
DGENRE=Country
TTITLE0=Lace - I Want A Man
TTITLE1=Jennifer Day - The Fun Of Your Love
TTITLE2=Sherrie Austin - Never Been Kissed
TTITLE3=Brad Paisley - Who Needs Pictures
TTITLE4=Linda Ronstadt and Emmylou Harris - For A Dancer
TTITLE5=Joe Diffie - The Quittin' Kind
TTITLE6=Andy Griggs - You Made Me That Way
TTITLE7=Jason Sellers - A Matter Of Time
TTITLE8=Chad Brook - Ordinary Life
TTITLE9=Keith Harling - Bring It On
EXTD=
EXTT0=
EXTT1=
EXTT2=
EXTT3=
EXTT4=
EXTT5=
EXTT6=
EXTT7=
EXTT8=
EXTT9=
PLAYORDER=
